<?xml version="1.0" encoding="UTF-8" standalone="no"?>
<!DOCTYPE svg PUBLIC "-//W3C//DTD SVG 1.1//EN"
 "http://www.w3.org/Graphics/SVG/1.1/DTD/svg11.dtd">
<!-- Generated by graphviz version 2.47.3 (20210619.1520)
 -->
<!-- Title: dependencies Pages: 1 -->
<svg width="1656pt" height="247pt"
 viewBox="0.00 0.00 1656.00 246.80" xmlns="http://www.w3.org/2000/svg" xmlns:xlink="http://www.w3.org/1999/xlink">
<g id="graph0" class="graph" transform="scale(1 1) rotate(0) translate(4 242.8)">
<title>dependencies</title>
<polygon fill="white" stroke="transparent" points="-4,4 -4,-242.8 1652,-242.8 1652,4 -4,4"/>
<text text-anchor="middle" x="824" y="-8.2" font-family="sans-serif" font-size="14.00">dependencies</text>
<g id="clust1" class="cluster">
<title>cluster_AppModule</title>
<polygon fill="none" stroke="black" stroke-dasharray="1,5" points="8,-32.8 8,-230.8 1640,-230.8 1640,-32.8 8,-32.8"/>
</g>
<g id="clust2" class="cluster">
<title>cluster_AppModule_declarations</title>
<polygon fill="none" stroke="black" points="543,-40.8 543,-92.8 1632,-92.8 1632,-40.8 543,-40.8"/>
</g>
<g id="clust10" class="cluster">
<title>cluster_AppModule_imports</title>
<polygon fill="none" stroke="black" points="16,-40.8 16,-92.8 535,-92.8 535,-40.8 16,-40.8"/>
</g>
<g id="clust12" class="cluster">
<title>cluster_AppModule_bootstrap</title>
<polygon fill="none" stroke="black" points="747,-170.8 747,-222.8 871,-222.8 871,-170.8 747,-170.8"/>
</g>
<!-- AppComponent -->
<g id="node1" class="node">
<title>AppComponent</title>
<polygon fill="#ffffb3" stroke="black" points="1623.94,-84.8 1518.06,-84.8 1518.06,-48.8 1623.94,-48.8 1623.94,-84.8"/>
<text text-anchor="middle" x="1571" y="-62.6" font-family="Times,serif" font-size="14.00">AppComponent</text>
</g>
<!-- AppModule -->
<g id="node8" class="node">
<title>AppModule</title>
<polygon fill="#8dd3c7" stroke="black" points="850.66,-149.8 847.66,-153.8 826.66,-153.8 823.66,-149.8 767.34,-149.8 767.34,-113.8 850.66,-113.8 850.66,-149.8"/>
<text text-anchor="middle" x="809" y="-127.6" font-family="Times,serif" font-size="14.00">AppModule</text>
</g>
<!-- AppComponent&#45;&gt;AppModule -->
<g id="edge1" class="edge">
<title>AppComponent&#45;&gt;AppModule</title>
<path fill="none" stroke="black" d="M1571,-85.05C1571,-107.82 1571,-143.8 1571,-143.8 1571,-143.8 860.78,-143.8 860.78,-143.8"/>
<polygon fill="black" stroke="black" points="860.78,-140.3 850.78,-143.8 860.78,-147.3 860.78,-140.3"/>
</g>
<!-- ButtonComponent -->
<g id="node2" class="node">
<title>ButtonComponent</title>
<polygon fill="#ffffb3" stroke="black" points="1500.95,-84.8 1381.05,-84.8 1381.05,-48.8 1500.95,-48.8 1500.95,-84.8"/>
<text text-anchor="middle" x="1441" y="-62.6" font-family="Times,serif" font-size="14.00">ButtonComponent</text>
</g>
<!-- ButtonComponent&#45;&gt;AppModule -->
<g id="edge2" class="edge">
<title>ButtonComponent&#45;&gt;AppModule</title>
<path fill="none" stroke="black" d="M1441,-85.08C1441,-106.12 1441,-137.8 1441,-137.8 1441,-137.8 860.96,-137.8 860.96,-137.8"/>
<polygon fill="black" stroke="black" points="860.96,-134.3 850.96,-137.8 860.96,-141.3 860.96,-134.3"/>
</g>
<!-- TextFieldComponent -->
<g id="node3" class="node">
<title>TextFieldComponent</title>
<polygon fill="#ffffb3" stroke="black" points="1362.77,-84.8 1227.23,-84.8 1227.23,-48.8 1362.77,-48.8 1362.77,-84.8"/>
<text text-anchor="middle" x="1295" y="-62.6" font-family="Times,serif" font-size="14.00">TextFieldComponent</text>
</g>
<!-- TextFieldComponent&#45;&gt;AppModule -->
<g id="edge3" class="edge">
<title>TextFieldComponent&#45;&gt;AppModule</title>
<path fill="none" stroke="black" d="M1295,-84.91C1295,-104.14 1295,-131.8 1295,-131.8 1295,-131.8 860.86,-131.8 860.86,-131.8"/>
<polygon fill="black" stroke="black" points="860.86,-128.3 850.86,-131.8 860.86,-135.3 860.86,-128.3"/>
</g>
<!-- GameSetupComponent -->
<g id="node4" class="node">
<title>GameSetupComponent</title>
<polygon fill="#ffffb3" stroke="black" points="1209.15,-84.8 1062.85,-84.8 1062.85,-48.8 1209.15,-48.8 1209.15,-84.8"/>
<text text-anchor="middle" x="1136" y="-62.6" font-family="Times,serif" font-size="14.00">GameSetupComponent</text>
</g>
<!-- GameSetupComponent&#45;&gt;AppModule -->
<g id="edge4" class="edge">
<title>GameSetupComponent&#45;&gt;AppModule</title>
<path fill="none" stroke="black" d="M1136,-84.82C1136,-102.17 1136,-125.8 1136,-125.8 1136,-125.8 860.75,-125.8 860.75,-125.8"/>
<polygon fill="black" stroke="black" points="860.75,-122.3 850.75,-125.8 860.75,-129.3 860.75,-122.3"/>
</g>
<!-- GameModeComponent -->
<g id="node5" class="node">
<title>GameModeComponent</title>
<polygon fill="#ffffb3" stroke="black" points="1044.92,-84.8 897.08,-84.8 897.08,-48.8 1044.92,-48.8 1044.92,-84.8"/>
<text text-anchor="middle" x="971" y="-62.6" font-family="Times,serif" font-size="14.00">GameModeComponent</text>
</g>
<!-- GameModeComponent&#45;&gt;AppModule -->
<g id="edge5" class="edge">
<title>GameModeComponent&#45;&gt;AppModule</title>
<path fill="none" stroke="black" d="M971,-85.04C971,-100.37 971,-119.8 971,-119.8 971,-119.8 860.72,-119.8 860.72,-119.8"/>
<polygon fill="black" stroke="black" points="860.72,-116.3 850.72,-119.8 860.72,-123.3 860.72,-116.3"/>
</g>
<!-- PlayerAddComponent -->
<g id="node6" class="node">
<title>PlayerAddComponent</title>
<polygon fill="#ffffb3" stroke="black" points="879.7,-84.8 738.3,-84.8 738.3,-48.8 879.7,-48.8 879.7,-84.8"/>
<text text-anchor="middle" x="809" y="-62.6" font-family="Times,serif" font-size="14.00">PlayerAddComponent</text>
</g>
<!-- PlayerAddComponent&#45;&gt;AppModule -->
<g id="edge6" class="edge">
<title>PlayerAddComponent&#45;&gt;AppModule</title>
<path fill="none" stroke="black" d="M809,-84.91C809,-84.91 809,-103.79 809,-103.79"/>
<polygon fill="black" stroke="black" points="805.5,-103.79 809,-113.79 812.5,-103.79 805.5,-103.79"/>
</g>
<!-- PlayerSelectionComponent -->
<g id="node7" class="node">
<title>PlayerSelectionComponent</title>
<polygon fill="#ffffb3" stroke="black" points="720.69,-84.8 551.31,-84.8 551.31,-48.8 720.69,-48.8 720.69,-84.8"/>
<text text-anchor="middle" x="636" y="-62.6" font-family="Times,serif" font-size="14.00">PlayerSelectionComponent</text>
</g>
<!-- PlayerSelectionComponent&#45;&gt;AppModule -->
<g id="edge7" class="edge">
<title>PlayerSelectionComponent&#45;&gt;AppModule</title>
<path fill="none" stroke="black" d="M636,-85.04C636,-100.37 636,-119.8 636,-119.8 636,-119.8 757.12,-119.8 757.12,-119.8"/>
<polygon fill="black" stroke="black" points="757.12,-123.3 767.12,-119.8 757.12,-116.3 757.12,-123.3"/>
</g>
<!-- AppComponent  -->
<g id="node13" class="node">
<title>AppComponent </title>
<polygon fill="#80b1d3" stroke="black" points="863.44,-214.8 754.56,-214.8 754.56,-178.8 863.44,-178.8 863.44,-214.8"/>
<text text-anchor="middle" x="809" y="-192.6" font-family="Times,serif" font-size="14.00">AppComponent </text>
</g>
<!-- AppModule&#45;&gt;AppComponent  -->
<g id="edge12" class="edge">
<title>AppModule&#45;&gt;AppComponent </title>
<path fill="none" stroke="black" stroke-dasharray="1,5" d="M809,-149.91C809,-149.91 809,-168.79 809,-168.79"/>
<polygon fill="black" stroke="black" points="805.5,-168.79 809,-178.79 812.5,-168.79 805.5,-168.79"/>
</g>
<!-- BrowserModule -->
<g id="node9" class="node">
<title>BrowserModule</title>
<polygon fill="#8dd3c7" stroke="black" points="527.47,-84.8 524.47,-88.8 503.47,-88.8 500.47,-84.8 420.53,-84.8 420.53,-48.8 527.47,-48.8 527.47,-84.8"/>
<text text-anchor="middle" x="474" y="-62.6" font-family="Times,serif" font-size="14.00">BrowserModule</text>
</g>
<!-- BrowserModule&#45;&gt;AppModule -->
<g id="edge8" class="edge">
<title>BrowserModule&#45;&gt;AppModule</title>
<path fill="none" stroke="black" d="M474,-84.82C474,-102.17 474,-125.8 474,-125.8 474,-125.8 757.25,-125.8 757.25,-125.8"/>
<polygon fill="black" stroke="black" points="757.25,-129.3 767.25,-125.8 757.25,-122.3 757.25,-129.3"/>
</g>
<!-- AppRoutingModule -->
<g id="node10" class="node">
<title>AppRoutingModule</title>
<polygon fill="#8dd3c7" stroke="black" points="402.27,-84.8 399.27,-88.8 378.27,-88.8 375.27,-84.8 273.73,-84.8 273.73,-48.8 402.27,-48.8 402.27,-84.8"/>
<text text-anchor="middle" x="338" y="-62.6" font-family="Times,serif" font-size="14.00">AppRoutingModule</text>
</g>
<!-- AppRoutingModule&#45;&gt;AppModule -->
<g id="edge9" class="edge">
<title>AppRoutingModule&#45;&gt;AppModule</title>
<path fill="none" stroke="black" d="M338,-84.91C338,-104.14 338,-131.8 338,-131.8 338,-131.8 757.2,-131.8 757.2,-131.8"/>
<polygon fill="black" stroke="black" points="757.2,-135.3 767.2,-131.8 757.2,-128.3 757.2,-135.3"/>
</g>
<!-- FormsModule -->
<g id="node11" class="node">
<title>FormsModule</title>
<polygon fill="#8dd3c7" stroke="black" points="255.83,-84.8 252.83,-88.8 231.83,-88.8 228.83,-84.8 160.17,-84.8 160.17,-48.8 255.83,-48.8 255.83,-84.8"/>
<text text-anchor="middle" x="208" y="-62.6" font-family="Times,serif" font-size="14.00">FormsModule</text>
</g>
<!-- FormsModule&#45;&gt;AppModule -->
<g id="edge10" class="edge">
<title>FormsModule&#45;&gt;AppModule</title>
<path fill="none" stroke="black" d="M208,-85.08C208,-106.12 208,-137.8 208,-137.8 208,-137.8 757.22,-137.8 757.22,-137.8"/>
<polygon fill="black" stroke="black" points="757.22,-141.3 767.22,-137.8 757.22,-134.3 757.22,-141.3"/>
</g>
<!-- HttpClientModule -->
<g id="node12" class="node">
<title>HttpClientModule</title>
<polygon fill="#8dd3c7" stroke="black" points="142.16,-84.8 139.16,-88.8 118.16,-88.8 115.16,-84.8 23.84,-84.8 23.84,-48.8 142.16,-48.8 142.16,-84.8"/>
<text text-anchor="middle" x="83" y="-62.6" font-family="Times,serif" font-size="14.00">HttpClientModule</text>
</g>
<!-- HttpClientModule&#45;&gt;AppModule -->
<g id="edge11" class="edge">
<title>HttpClientModule&#45;&gt;AppModule</title>
<path fill="none" stroke="black" d="M83,-85.05C83,-107.82 83,-143.8 83,-143.8 83,-143.8 757.09,-143.8 757.09,-143.8"/>
<polygon fill="black" stroke="black" points="757.09,-147.3 767.09,-143.8 757.09,-140.3 757.09,-147.3"/>
</g>
</g>
</svg>
