<?xml version="1.0" encoding="UTF-8" standalone="no"?>
<!DOCTYPE svg PUBLIC "-//W3C//DTD SVG 1.1//EN"
 "http://www.w3.org/Graphics/SVG/1.1/DTD/svg11.dtd">
<!-- Generated by graphviz version 2.47.3 (20210619.1520)
 -->
<!-- Title: dependencies Pages: 1 -->
<svg width="2292pt" height="247pt"
 viewBox="0.00 0.00 2292.00 246.80" xmlns="http://www.w3.org/2000/svg" xmlns:xlink="http://www.w3.org/1999/xlink">
<g id="graph0" class="graph" transform="scale(1 1) rotate(0) translate(4 242.8)">
<title>dependencies</title>
<polygon fill="white" stroke="transparent" points="-4,4 -4,-242.8 2288,-242.8 2288,4 -4,4"/>
<text text-anchor="middle" x="1142" y="-8.2" font-family="sans-serif" font-size="14.00">dependencies</text>
<g id="clust1" class="cluster">
<title>cluster_AppModule</title>
<polygon fill="none" stroke="black" stroke-dasharray="1,5" points="8,-32.8 8,-230.8 2276,-230.8 2276,-32.8 8,-32.8"/>
</g>
<g id="clust18" class="cluster">
<title>cluster_AppModule_bootstrap</title>
<polygon fill="none" stroke="black" points="1136,-170.8 1136,-222.8 1260,-222.8 1260,-170.8 1136,-170.8"/>
</g>
<g id="clust16" class="cluster">
<title>cluster_AppModule_imports</title>
<polygon fill="none" stroke="black" points="2124,-40.8 2124,-92.8 2268,-92.8 2268,-40.8 2124,-40.8"/>
</g>
<g id="clust2" class="cluster">
<title>cluster_AppModule_declarations</title>
<polygon fill="none" stroke="black" points="16,-40.8 16,-92.8 2116,-92.8 2116,-40.8 16,-40.8"/>
</g>
<!-- AppComponent -->
<g id="node1" class="node">
<title>AppComponent</title>
<polygon fill="#ffffb3" stroke="black" points="2107.94,-84.8 2002.06,-84.8 2002.06,-48.8 2107.94,-48.8 2107.94,-84.8"/>
<text text-anchor="middle" x="2055" y="-62.6" font-family="Times,serif" font-size="14.00">AppComponent</text>
</g>
<!-- AppModule -->
<g id="node14" class="node">
<title>AppModule</title>
<polygon fill="#8dd3c7" stroke="black" points="1239.66,-149.8 1236.66,-153.8 1215.66,-153.8 1212.66,-149.8 1156.34,-149.8 1156.34,-113.8 1239.66,-113.8 1239.66,-149.8"/>
<text text-anchor="middle" x="1198" y="-127.6" font-family="Times,serif" font-size="14.00">AppModule</text>
</g>
<!-- AppComponent&#45;&gt;AppModule -->
<g id="edge1" class="edge">
<title>AppComponent&#45;&gt;AppModule</title>
<path fill="none" stroke="black" d="M2055,-84.84C2055,-106.46 2055,-139.8 2055,-139.8 2055,-139.8 1249.92,-139.8 1249.92,-139.8"/>
<polygon fill="black" stroke="black" points="1249.92,-136.3 1239.92,-139.8 1249.91,-143.3 1249.92,-136.3"/>
</g>
<!-- ButtonComponent -->
<g id="node2" class="node">
<title>ButtonComponent</title>
<polygon fill="#ffffb3" stroke="black" points="1984.95,-84.8 1865.05,-84.8 1865.05,-48.8 1984.95,-48.8 1984.95,-84.8"/>
<text text-anchor="middle" x="1925" y="-62.6" font-family="Times,serif" font-size="14.00">ButtonComponent</text>
</g>
<!-- ButtonComponent&#45;&gt;AppModule -->
<g id="edge2" class="edge">
<title>ButtonComponent&#45;&gt;AppModule</title>
<path fill="none" stroke="black" d="M1925,-85.02C1925,-105.17 1925,-134.8 1925,-134.8 1925,-134.8 1249.7,-134.8 1249.7,-134.8"/>
<polygon fill="black" stroke="black" points="1249.7,-131.3 1239.7,-134.8 1249.7,-138.3 1249.7,-131.3"/>
</g>
<!-- DartboardComponent -->
<g id="node3" class="node">
<title>DartboardComponent</title>
<polygon fill="#ffffb3" stroke="black" points="1847.08,-84.8 1708.92,-84.8 1708.92,-48.8 1847.08,-48.8 1847.08,-84.8"/>
<text text-anchor="middle" x="1778" y="-62.6" font-family="Times,serif" font-size="14.00">DartboardComponent</text>
</g>
<!-- DartboardComponent&#45;&gt;AppModule -->
<g id="edge3" class="edge">
<title>DartboardComponent&#45;&gt;AppModule</title>
<path fill="none" stroke="black" d="M1778,-85.02C1778,-103.63 1778,-129.8 1778,-129.8 1778,-129.8 1249.71,-129.8 1249.71,-129.8"/>
<polygon fill="black" stroke="black" points="1249.71,-126.3 1239.71,-129.8 1249.71,-133.3 1249.71,-126.3"/>
</g>
<!-- GameActiveComponent -->
<g id="node4" class="node">
<title>GameActiveComponent</title>
<polygon fill="#ffffb3" stroke="black" points="1691.08,-84.8 1538.92,-84.8 1538.92,-48.8 1691.08,-48.8 1691.08,-84.8"/>
<text text-anchor="middle" x="1615" y="-62.6" font-family="Times,serif" font-size="14.00">GameActiveComponent</text>
</g>
<!-- GameActiveComponent&#45;&gt;AppModule -->
<g id="edge4" class="edge">
<title>GameActiveComponent&#45;&gt;AppModule</title>
<path fill="none" stroke="black" d="M1615,-84.83C1615,-101.86 1615,-124.8 1615,-124.8 1615,-124.8 1249.89,-124.8 1249.89,-124.8"/>
<polygon fill="black" stroke="black" points="1249.89,-121.3 1239.89,-124.8 1249.89,-128.3 1249.89,-121.3"/>
</g>
<!-- GameModeComponent -->
<g id="node5" class="node">
<title>GameModeComponent</title>
<polygon fill="#ffffb3" stroke="black" points="1520.92,-84.8 1373.08,-84.8 1373.08,-48.8 1520.92,-48.8 1520.92,-84.8"/>
<text text-anchor="middle" x="1447" y="-62.6" font-family="Times,serif" font-size="14.00">GameModeComponent</text>
</g>
<!-- GameModeComponent&#45;&gt;AppModule -->
<g id="edge5" class="edge">
<title>GameModeComponent&#45;&gt;AppModule</title>
<path fill="none" stroke="black" d="M1447,-85.04C1447,-100.37 1447,-119.8 1447,-119.8 1447,-119.8 1249.68,-119.8 1249.68,-119.8"/>
<polygon fill="black" stroke="black" points="1249.68,-116.3 1239.68,-119.8 1249.68,-123.3 1249.68,-116.3"/>
</g>
<!-- GameSetupComponent -->
<g id="node6" class="node">
<title>GameSetupComponent</title>
<polygon fill="#ffffb3" stroke="black" points="1355.15,-84.8 1208.85,-84.8 1208.85,-48.8 1355.15,-48.8 1355.15,-84.8"/>
<text text-anchor="middle" x="1282" y="-62.6" font-family="Times,serif" font-size="14.00">GameSetupComponent</text>
</g>
<!-- GameSetupComponent&#45;&gt;AppModule -->
<g id="edge6" class="edge">
<title>GameSetupComponent&#45;&gt;AppModule</title>
<path fill="none" stroke="black" d="M1224.25,-84.91C1224.25,-84.91 1224.25,-103.79 1224.25,-103.79"/>
<polygon fill="black" stroke="black" points="1220.75,-103.79 1224.25,-113.79 1227.75,-103.79 1220.75,-103.79"/>
</g>
<!-- LeaderboardComponent -->
<g id="node7" class="node">
<title>LeaderboardComponent</title>
<polygon fill="#ffffb3" stroke="black" points="1191.06,-84.8 1038.94,-84.8 1038.94,-48.8 1191.06,-48.8 1191.06,-84.8"/>
<text text-anchor="middle" x="1115" y="-62.6" font-family="Times,serif" font-size="14.00">LeaderboardComponent</text>
</g>
<!-- LeaderboardComponent&#45;&gt;AppModule -->
<g id="edge7" class="edge">
<title>LeaderboardComponent&#45;&gt;AppModule</title>
<path fill="none" stroke="black" d="M1173.6,-84.91C1173.6,-84.91 1173.6,-103.79 1173.6,-103.79"/>
<polygon fill="black" stroke="black" points="1170.1,-103.79 1173.6,-113.79 1177.1,-103.79 1170.1,-103.79"/>
</g>
<!-- LeaderboardPlayerComponent -->
<g id="node8" class="node">
<title>LeaderboardPlayerComponent</title>
<polygon fill="#ffffb3" stroke="black" points="1020.83,-84.8 833.17,-84.8 833.17,-48.8 1020.83,-48.8 1020.83,-84.8"/>
<text text-anchor="middle" x="927" y="-62.6" font-family="Times,serif" font-size="14.00">LeaderboardPlayerComponent</text>
</g>
<!-- LeaderboardPlayerComponent&#45;&gt;AppModule -->
<g id="edge8" class="edge">
<title>LeaderboardPlayerComponent&#45;&gt;AppModule</title>
<path fill="none" stroke="black" d="M927,-85.04C927,-100.37 927,-119.8 927,-119.8 927,-119.8 1146.25,-119.8 1146.25,-119.8"/>
<polygon fill="black" stroke="black" points="1146.25,-123.3 1156.25,-119.8 1146.25,-116.3 1146.25,-123.3"/>
</g>
<!-- PlayerAddComponent -->
<g id="node9" class="node">
<title>PlayerAddComponent</title>
<polygon fill="#ffffb3" stroke="black" points="814.7,-84.8 673.3,-84.8 673.3,-48.8 814.7,-48.8 814.7,-84.8"/>
<text text-anchor="middle" x="744" y="-62.6" font-family="Times,serif" font-size="14.00">PlayerAddComponent</text>
</g>
<!-- PlayerAddComponent&#45;&gt;AppModule -->
<g id="edge9" class="edge">
<title>PlayerAddComponent&#45;&gt;AppModule</title>
<path fill="none" stroke="black" d="M744,-84.83C744,-101.86 744,-124.8 744,-124.8 744,-124.8 1146.1,-124.8 1146.1,-124.8"/>
<polygon fill="black" stroke="black" points="1146.1,-128.3 1156.1,-124.8 1146.1,-121.3 1146.1,-128.3"/>
</g>
<!-- PlayerScoreComponent -->
<g id="node10" class="node">
<title>PlayerScoreComponent</title>
<polygon fill="#ffffb3" stroke="black" points="655.47,-84.8 506.53,-84.8 506.53,-48.8 655.47,-48.8 655.47,-84.8"/>
<text text-anchor="middle" x="581" y="-62.6" font-family="Times,serif" font-size="14.00">PlayerScoreComponent</text>
</g>
<!-- PlayerScoreComponent&#45;&gt;AppModule -->
<g id="edge10" class="edge">
<title>PlayerScoreComponent&#45;&gt;AppModule</title>
<path fill="none" stroke="black" d="M581,-85.02C581,-103.63 581,-129.8 581,-129.8 581,-129.8 1146.08,-129.8 1146.08,-129.8"/>
<polygon fill="black" stroke="black" points="1146.08,-133.3 1156.08,-129.8 1146.08,-126.3 1146.08,-133.3"/>
</g>
<!-- PlayerSelectionComponent -->
<g id="node11" class="node">
<title>PlayerSelectionComponent</title>
<polygon fill="#ffffb3" stroke="black" points="488.69,-84.8 319.31,-84.8 319.31,-48.8 488.69,-48.8 488.69,-84.8"/>
<text text-anchor="middle" x="404" y="-62.6" font-family="Times,serif" font-size="14.00">PlayerSelectionComponent</text>
</g>
<!-- PlayerSelectionComponent&#45;&gt;AppModule -->
<g id="edge11" class="edge">
<title>PlayerSelectionComponent&#45;&gt;AppModule</title>
<path fill="none" stroke="black" d="M404,-85.02C404,-105.17 404,-134.8 404,-134.8 404,-134.8 1146.15,-134.8 1146.15,-134.8"/>
<polygon fill="black" stroke="black" points="1146.15,-138.3 1156.15,-134.8 1146.15,-131.3 1146.15,-138.3"/>
</g>
<!-- TextFieldComponent -->
<g id="node12" class="node">
<title>TextFieldComponent</title>
<polygon fill="#ffffb3" stroke="black" points="301.77,-84.8 166.23,-84.8 166.23,-48.8 301.77,-48.8 301.77,-84.8"/>
<text text-anchor="middle" x="234" y="-62.6" font-family="Times,serif" font-size="14.00">TextFieldComponent</text>
</g>
<!-- TextFieldComponent&#45;&gt;AppModule -->
<g id="edge12" class="edge">
<title>TextFieldComponent&#45;&gt;AppModule</title>
<path fill="none" stroke="black" d="M234,-84.84C234,-106.46 234,-139.8 234,-139.8 234,-139.8 1146.27,-139.8 1146.27,-139.8"/>
<polygon fill="black" stroke="black" points="1146.27,-143.3 1156.27,-139.8 1146.27,-136.3 1146.27,-143.3"/>
</g>
<!-- WinnerComponent -->
<g id="node13" class="node">
<title>WinnerComponent</title>
<polygon fill="#ffffb3" stroke="black" points="147.81,-84.8 24.19,-84.8 24.19,-48.8 147.81,-48.8 147.81,-84.8"/>
<text text-anchor="middle" x="86" y="-62.6" font-family="Times,serif" font-size="14.00">WinnerComponent</text>
</g>
<!-- WinnerComponent&#45;&gt;AppModule -->
<g id="edge13" class="edge">
<title>WinnerComponent&#45;&gt;AppModule</title>
<path fill="none" stroke="black" d="M86,-84.89C86,-107.93 86,-144.8 86,-144.8 86,-144.8 1146.1,-144.8 1146.1,-144.8"/>
<polygon fill="black" stroke="black" points="1146.1,-148.3 1156.1,-144.8 1146.1,-141.3 1146.1,-148.3"/>
</g>
<!-- AppComponent  -->
<g id="node16" class="node">
<title>AppComponent </title>
<polygon fill="#80b1d3" stroke="black" points="1252.44,-214.8 1143.56,-214.8 1143.56,-178.8 1252.44,-178.8 1252.44,-214.8"/>
<text text-anchor="middle" x="1198" y="-192.6" font-family="Times,serif" font-size="14.00">AppComponent </text>
</g>
<!-- AppModule&#45;&gt;AppComponent  -->
<g id="edge15" class="edge">
<title>AppModule&#45;&gt;AppComponent </title>
<path fill="none" stroke="black" stroke-dasharray="1,5" d="M1198,-149.91C1198,-149.91 1198,-168.79 1198,-168.79"/>
<polygon fill="black" stroke="black" points="1194.5,-168.79 1198,-178.79 1201.5,-168.79 1194.5,-168.79"/>
</g>
<!-- AppRoutingModule -->
<g id="node15" class="node">
<title>AppRoutingModule</title>
<polygon fill="#8dd3c7" stroke="black" points="2260.27,-84.8 2257.27,-88.8 2236.27,-88.8 2233.27,-84.8 2131.73,-84.8 2131.73,-48.8 2260.27,-48.8 2260.27,-84.8"/>
<text text-anchor="middle" x="2196" y="-62.6" font-family="Times,serif" font-size="14.00">AppRoutingModule</text>
</g>
<!-- AppRoutingModule&#45;&gt;AppModule -->
<g id="edge14" class="edge">
<title>AppRoutingModule&#45;&gt;AppModule</title>
<path fill="none" stroke="black" d="M2196,-84.89C2196,-107.93 2196,-144.8 2196,-144.8 2196,-144.8 1249.93,-144.8 1249.93,-144.8"/>
<polygon fill="black" stroke="black" points="1249.93,-141.3 1239.93,-144.8 1249.93,-148.3 1249.93,-141.3"/>
</g>
</g>
</svg>
