<?xml version="1.0" encoding="UTF-8" standalone="no"?>
<!DOCTYPE svg PUBLIC "-//W3C//DTD SVG 1.1//EN"
 "http://www.w3.org/Graphics/SVG/1.1/DTD/svg11.dtd">
<!-- Generated by graphviz version 2.47.3 (20210619.1520)
 -->
<!-- Title: dependencies Pages: 1 -->
<svg width="1656pt" height="247pt"
 viewBox="0.00 0.00 1656.00 246.80" xmlns="http://www.w3.org/2000/svg" xmlns:xlink="http://www.w3.org/1999/xlink">
<g id="graph0" class="graph" transform="scale(1 1) rotate(0) translate(4 242.8)">
<title>dependencies</title>
<polygon fill="white" stroke="transparent" points="-4,4 -4,-242.8 1652,-242.8 1652,4 -4,4"/>
<text text-anchor="middle" x="824" y="-8.2" font-family="sans-serif" font-size="14.00">dependencies</text>
<g id="clust1" class="cluster">
<title>cluster_AppModule</title>
<polygon fill="none" stroke="black" stroke-dasharray="1,5" points="8,-32.8 8,-230.8 1640,-230.8 1640,-32.8 8,-32.8"/>
</g>
<g id="clust10" class="cluster">
<title>cluster_AppModule_imports</title>
<polygon fill="none" stroke="black" points="1113,-40.8 1113,-92.8 1632,-92.8 1632,-40.8 1113,-40.8"/>
</g>
<g id="clust12" class="cluster">
<title>cluster_AppModule_bootstrap</title>
<polygon fill="none" stroke="black" points="852,-170.8 852,-222.8 976,-222.8 976,-170.8 852,-170.8"/>
</g>
<g id="clust2" class="cluster">
<title>cluster_AppModule_declarations</title>
<polygon fill="none" stroke="black" points="16,-40.8 16,-92.8 1105,-92.8 1105,-40.8 16,-40.8"/>
</g>
<!-- AppComponent -->
<g id="node1" class="node">
<title>AppComponent</title>
<polygon fill="#ffffb3" stroke="black" points="1096.94,-84.8 991.06,-84.8 991.06,-48.8 1096.94,-48.8 1096.94,-84.8"/>
<text text-anchor="middle" x="1044" y="-62.6" font-family="Times,serif" font-size="14.00">AppComponent</text>
</g>
<!-- AppModule -->
<g id="node8" class="node">
<title>AppModule</title>
<polygon fill="#8dd3c7" stroke="black" points="955.66,-149.8 952.66,-153.8 931.66,-153.8 928.66,-149.8 872.34,-149.8 872.34,-113.8 955.66,-113.8 955.66,-149.8"/>
<text text-anchor="middle" x="914" y="-127.6" font-family="Times,serif" font-size="14.00">AppModule</text>
</g>
<!-- AppComponent&#45;&gt;AppModule -->
<g id="edge1" class="edge">
<title>AppComponent&#45;&gt;AppModule</title>
<path fill="none" stroke="black" d="M1044,-85.04C1044,-100.37 1044,-119.8 1044,-119.8 1044,-119.8 965.85,-119.8 965.85,-119.8"/>
<polygon fill="black" stroke="black" points="965.85,-116.3 955.85,-119.8 965.85,-123.3 965.85,-116.3"/>
</g>
<!-- ButtonComponent -->
<g id="node2" class="node">
<title>ButtonComponent</title>
<polygon fill="#ffffb3" stroke="black" points="973.95,-84.8 854.05,-84.8 854.05,-48.8 973.95,-48.8 973.95,-84.8"/>
<text text-anchor="middle" x="914" y="-62.6" font-family="Times,serif" font-size="14.00">ButtonComponent</text>
</g>
<!-- ButtonComponent&#45;&gt;AppModule -->
<g id="edge2" class="edge">
<title>ButtonComponent&#45;&gt;AppModule</title>
<path fill="none" stroke="black" d="M914,-84.91C914,-84.91 914,-103.79 914,-103.79"/>
<polygon fill="black" stroke="black" points="910.5,-103.79 914,-113.79 917.5,-103.79 910.5,-103.79"/>
</g>
<!-- TextFieldComponent -->
<g id="node3" class="node">
<title>TextFieldComponent</title>
<polygon fill="#ffffb3" stroke="black" points="835.77,-84.8 700.23,-84.8 700.23,-48.8 835.77,-48.8 835.77,-84.8"/>
<text text-anchor="middle" x="768" y="-62.6" font-family="Times,serif" font-size="14.00">TextFieldComponent</text>
</g>
<!-- TextFieldComponent&#45;&gt;AppModule -->
<g id="edge3" class="edge">
<title>TextFieldComponent&#45;&gt;AppModule</title>
<path fill="none" stroke="black" d="M768,-85.04C768,-100.37 768,-119.8 768,-119.8 768,-119.8 862.16,-119.8 862.16,-119.8"/>
<polygon fill="black" stroke="black" points="862.16,-123.3 872.16,-119.8 862.16,-116.3 862.16,-123.3"/>
</g>
<!-- GameSetupComponent -->
<g id="node4" class="node">
<title>GameSetupComponent</title>
<polygon fill="#ffffb3" stroke="black" points="682.15,-84.8 535.85,-84.8 535.85,-48.8 682.15,-48.8 682.15,-84.8"/>
<text text-anchor="middle" x="609" y="-62.6" font-family="Times,serif" font-size="14.00">GameSetupComponent</text>
</g>
<!-- GameSetupComponent&#45;&gt;AppModule -->
<g id="edge4" class="edge">
<title>GameSetupComponent&#45;&gt;AppModule</title>
<path fill="none" stroke="black" d="M609,-84.82C609,-102.17 609,-125.8 609,-125.8 609,-125.8 862.23,-125.8 862.23,-125.8"/>
<polygon fill="black" stroke="black" points="862.23,-129.3 872.23,-125.8 862.23,-122.3 862.23,-129.3"/>
</g>
<!-- GameModeComponent -->
<g id="node5" class="node">
<title>GameModeComponent</title>
<polygon fill="#ffffb3" stroke="black" points="517.92,-84.8 370.08,-84.8 370.08,-48.8 517.92,-48.8 517.92,-84.8"/>
<text text-anchor="middle" x="444" y="-62.6" font-family="Times,serif" font-size="14.00">GameModeComponent</text>
</g>
<!-- GameModeComponent&#45;&gt;AppModule -->
<g id="edge5" class="edge">
<title>GameModeComponent&#45;&gt;AppModule</title>
<path fill="none" stroke="black" d="M444,-84.91C444,-104.14 444,-131.8 444,-131.8 444,-131.8 862.29,-131.8 862.29,-131.8"/>
<polygon fill="black" stroke="black" points="862.29,-135.3 872.29,-131.8 862.29,-128.3 862.29,-135.3"/>
</g>
<!-- PlayerAddComponent -->
<g id="node6" class="node">
<title>PlayerAddComponent</title>
<polygon fill="#ffffb3" stroke="black" points="352.7,-84.8 211.3,-84.8 211.3,-48.8 352.7,-48.8 352.7,-84.8"/>
<text text-anchor="middle" x="282" y="-62.6" font-family="Times,serif" font-size="14.00">PlayerAddComponent</text>
</g>
<!-- PlayerAddComponent&#45;&gt;AppModule -->
<g id="edge6" class="edge">
<title>PlayerAddComponent&#45;&gt;AppModule</title>
<path fill="none" stroke="black" d="M282,-85.08C282,-106.12 282,-137.8 282,-137.8 282,-137.8 862.04,-137.8 862.04,-137.8"/>
<polygon fill="black" stroke="black" points="862.04,-141.3 872.04,-137.8 862.04,-134.3 862.04,-141.3"/>
</g>
<!-- PlayerSelectionComponent -->
<g id="node7" class="node">
<title>PlayerSelectionComponent</title>
<polygon fill="#ffffb3" stroke="black" points="193.69,-84.8 24.31,-84.8 24.31,-48.8 193.69,-48.8 193.69,-84.8"/>
<text text-anchor="middle" x="109" y="-62.6" font-family="Times,serif" font-size="14.00">PlayerSelectionComponent</text>
</g>
<!-- PlayerSelectionComponent&#45;&gt;AppModule -->
<g id="edge7" class="edge">
<title>PlayerSelectionComponent&#45;&gt;AppModule</title>
<path fill="none" stroke="black" d="M109,-85.05C109,-107.82 109,-143.8 109,-143.8 109,-143.8 862.13,-143.8 862.13,-143.8"/>
<polygon fill="black" stroke="black" points="862.13,-147.3 872.13,-143.8 862.13,-140.3 862.13,-147.3"/>
</g>
<!-- AppComponent  -->
<g id="node13" class="node">
<title>AppComponent </title>
<polygon fill="#80b1d3" stroke="black" points="968.44,-214.8 859.56,-214.8 859.56,-178.8 968.44,-178.8 968.44,-214.8"/>
<text text-anchor="middle" x="914" y="-192.6" font-family="Times,serif" font-size="14.00">AppComponent </text>
</g>
<!-- AppModule&#45;&gt;AppComponent  -->
<g id="edge12" class="edge">
<title>AppModule&#45;&gt;AppComponent </title>
<path fill="none" stroke="black" stroke-dasharray="1,5" d="M914,-149.91C914,-149.91 914,-168.79 914,-168.79"/>
<polygon fill="black" stroke="black" points="910.5,-168.79 914,-178.79 917.5,-168.79 910.5,-168.79"/>
</g>
<!-- BrowserModule -->
<g id="node9" class="node">
<title>BrowserModule</title>
<polygon fill="#8dd3c7" stroke="black" points="1624.47,-84.8 1621.47,-88.8 1600.47,-88.8 1597.47,-84.8 1517.53,-84.8 1517.53,-48.8 1624.47,-48.8 1624.47,-84.8"/>
<text text-anchor="middle" x="1571" y="-62.6" font-family="Times,serif" font-size="14.00">BrowserModule</text>
</g>
<!-- BrowserModule&#45;&gt;AppModule -->
<g id="edge8" class="edge">
<title>BrowserModule&#45;&gt;AppModule</title>
<path fill="none" stroke="black" d="M1571,-85.05C1571,-107.82 1571,-143.8 1571,-143.8 1571,-143.8 965.85,-143.8 965.85,-143.8"/>
<polygon fill="black" stroke="black" points="965.85,-140.3 955.85,-143.8 965.85,-147.3 965.85,-140.3"/>
</g>
<!-- AppRoutingModule -->
<g id="node10" class="node">
<title>AppRoutingModule</title>
<polygon fill="#8dd3c7" stroke="black" points="1499.27,-84.8 1496.27,-88.8 1475.27,-88.8 1472.27,-84.8 1370.73,-84.8 1370.73,-48.8 1499.27,-48.8 1499.27,-84.8"/>
<text text-anchor="middle" x="1435" y="-62.6" font-family="Times,serif" font-size="14.00">AppRoutingModule</text>
</g>
<!-- AppRoutingModule&#45;&gt;AppModule -->
<g id="edge9" class="edge">
<title>AppRoutingModule&#45;&gt;AppModule</title>
<path fill="none" stroke="black" d="M1435,-85.08C1435,-106.12 1435,-137.8 1435,-137.8 1435,-137.8 965.75,-137.8 965.75,-137.8"/>
<polygon fill="black" stroke="black" points="965.75,-134.3 955.75,-137.8 965.75,-141.3 965.75,-134.3"/>
</g>
<!-- FormsModule -->
<g id="node11" class="node">
<title>FormsModule</title>
<polygon fill="#8dd3c7" stroke="black" points="1352.83,-84.8 1349.83,-88.8 1328.83,-88.8 1325.83,-84.8 1257.17,-84.8 1257.17,-48.8 1352.83,-48.8 1352.83,-84.8"/>
<text text-anchor="middle" x="1305" y="-62.6" font-family="Times,serif" font-size="14.00">FormsModule</text>
</g>
<!-- FormsModule&#45;&gt;AppModule -->
<g id="edge10" class="edge">
<title>FormsModule&#45;&gt;AppModule</title>
<path fill="none" stroke="black" d="M1305,-84.91C1305,-104.14 1305,-131.8 1305,-131.8 1305,-131.8 965.84,-131.8 965.84,-131.8"/>
<polygon fill="black" stroke="black" points="965.84,-128.3 955.84,-131.8 965.84,-135.3 965.84,-128.3"/>
</g>
<!-- HttpClientModule -->
<g id="node12" class="node">
<title>HttpClientModule</title>
<polygon fill="#8dd3c7" stroke="black" points="1239.16,-84.8 1236.16,-88.8 1215.16,-88.8 1212.16,-84.8 1120.84,-84.8 1120.84,-48.8 1239.16,-48.8 1239.16,-84.8"/>
<text text-anchor="middle" x="1180" y="-62.6" font-family="Times,serif" font-size="14.00">HttpClientModule</text>
</g>
<!-- HttpClientModule&#45;&gt;AppModule -->
<g id="edge11" class="edge">
<title>HttpClientModule&#45;&gt;AppModule</title>
<path fill="none" stroke="black" d="M1180,-84.82C1180,-102.17 1180,-125.8 1180,-125.8 1180,-125.8 965.86,-125.8 965.86,-125.8"/>
<polygon fill="black" stroke="black" points="965.86,-122.3 955.86,-125.8 965.86,-129.3 965.86,-122.3"/>
</g>
</g>
</svg>
